<?xml version="1.0" encoding="UTF-8"?>
<svg width="24px" height="24px" viewBox="0 0 24 24" version="1.1" xmlns="http://www.w3.org/2000/svg" xmlns:xlink="http://www.w3.org/1999/xlink">
    <!-- Generator: Sketch 57.1 (83088) - https://sketch.com -->
    <desc>Created with Sketch.</desc>
    <g id="system/search" stroke="none" stroke-width="1" fill="none" fill-rule="evenodd">
        <path d="M20.8769105,19.7347776 C21.0421514,19.8999841 21.0421514,20.1671916 20.8769105,20.3324324 L20.0823949,21.1269481 C19.917154,21.2921889 19.6499466,21.2921889 19.4847401,21.1269481 L15.2167677,16.8589757 C15.1394173,16.7781234 15.0937212,16.6726549 15.0937212,16.5601483 L15.0937212,16.0961144 C13.8105211,17.2035336 12.1406032,17.8750027 10.3124826,17.8750027 C6.27302534,17.8750027 3,14.6019773 3,10.5625201 C3,6.52306289 6.27302534,3.25003755 10.3124826,3.25003755 C14.3519398,3.25003755 17.6249651,6.52306289 17.6249651,10.5625201 C17.6249651,12.3906408 16.9534961,14.0605587 15.8460769,15.3437587 L16.3101108,15.3437587 C16.4226174,15.3437587 16.5280859,15.385953 16.6089382,15.4668053 L20.8769105,19.7347776 Z M10.3124826,16.1875067 C13.4203014,16.1875067 15.9374692,13.6703389 15.9374692,10.5625201 C15.9374692,7.45470129 13.4203014,4.93753353 10.3124826,4.93753353 C7.20466374,4.93753353 4.68749598,7.45470129 4.68749598,10.5625201 C4.68749598,13.6703389 7.20466374,16.1875067 10.3124826,16.1875067 Z" id="s" fill="#778CA2" fill-rule="nonzero"></path>
    </g>
</svg>